<?xml version="1.0" encoding="UTF-8"?>
<svg width="24px" height="24px" viewBox="0 0 24 24" version="1.1" xmlns="http://www.w3.org/2000/svg" xmlns:xlink="http://www.w3.org/1999/xlink">
    <title>icon/导航/首页备份 6</title>
    <g id="原型图" stroke="none" stroke-width="1" fill="none" fill-rule="evenodd">
        <g id="个人中心-基本信息" transform="translate(-24, -120)" fill-rule="nonzero">
            <g id="侧边栏" transform="translate(0, 48)">
                <g id="编组-3" transform="translate(0, 56)">
                    <g id="icon/导航/首页备份-6" transform="translate(24, 16)">
                        <rect id="icon/导航/首页备份-3" x="0" y="0" width="24" height="24"></rect>
                        <path d="M0,0 L24,0 L24,24 L0,24 Z" id="路径"></path>
                        <g id="icon/导航/系统">
                            <path d="M0,0 L24,0 L24,24 L0,24 Z" id="矩形"></path>
                            <path d="M12,4 L18.9282026,8 L18.9282026,16 L12,20 L5.07179689,16 L5.07179666,8 L12,4 Z" id="多边形" stroke="#7D8699" stroke-width="1.60000002" stroke-dasharray="0,0"></path>
                            <path d="M14.5,12 C14.5,10.62 13.3800001,9.5 12,9.5 C10.62,9.5 9.5,10.62 9.5,12 C9.5,13.3800001 10.62,14.5 12,14.5 C13.3800001,14.5 14.5,13.3800001 14.5,12 Z" id="路径" stroke="#7D8699" stroke-width="1.60000002" stroke-dasharray="0,0"></path>
                        </g>
                    </g>
                </g>
            </g>
        </g>
    </g>
</svg>