<?xml version="1.0" encoding="UTF-8"?>
<svg width="16px" height="16px" viewBox="0 0 16 16" version="1.1" xmlns="http://www.w3.org/2000/svg" xmlns:xlink="http://www.w3.org/1999/xlink">
    <title>&gt;&gt;</title>
    <g id="原型图" stroke="none" stroke-width="1" fill="none" fill-rule="evenodd">
        <g id="首页备份-2" transform="translate(-1514, -1284)">
            <g id="政策公告" transform="translate(0, 660)">
                <g id="右侧列表" transform="translate(970, 219)">
                    <g id="查看更多" transform="translate(476, 402)">
                        <g id="&gt;&gt;" transform="translate(68, 3)">
                            <rect id="矩形" x="0" y="0" width="16" height="16"></rect>
                            <path d="M13.75,7.55 L8.95,3.15 C8.75000001,2.95 8.35000001,2.95 8.15,3.15 C7.95000001,3.34999999 7.95000001,3.65 8.15,3.95 L12.55,7.95 L8.15,12.05 C7.95000001,12.25 7.95000001,12.55 8.15,12.85 C8.35,13.05 8.75,13.05 8.95,12.85 L13.75,8.35 C13.85,8.25 13.95,8.05 13.95,7.95 C13.95,7.85 13.85,7.65 13.75,7.55 Z M2.95,3.15 C2.75,2.95 2.35,2.95 2.15,3.15 C1.95,3.35 1.95,3.65 2.15,3.95 L6.55,7.95 L2.15,12.05 C1.95,12.25 1.95,12.55 2.15,12.85 C2.34999999,13.05 2.74999999,13.05 2.95,12.85 L7.75,8.35 C7.85,8.25 7.95000001,8.05 7.95000001,7.95 C7.95000001,7.85 7.85,7.65 7.75,7.55 L2.95,3.15 Z" id="形状" fill="#0167FE" fill-rule="nonzero"></path>
                        </g>
                    </g>
                </g>
            </g>
        </g>
    </g>
</svg>