<?xml version="1.0" encoding="UTF-8"?>
<svg width="24px" height="24px" viewBox="0 0 24 24" version="1.1" xmlns="http://www.w3.org/2000/svg" xmlns:xlink="http://www.w3.org/1999/xlink">
    <title>编组备份</title>
    <g id="原型图" stroke="none" stroke-width="1" fill="none" fill-rule="evenodd">
        <g id="登录修改" transform="translate(-1230, -840)">
            <g id="编组-5" transform="translate(1033, 200)">
                <g id="编组-4" transform="translate(188, 590)">
                    <g id="编组备份" transform="translate(9, 50)">
                        <rect id="矩形备份-2" fill="#FFBCBC" opacity="0" x="0" y="0" width="24" height="24"></rect>
                        <path d="M16.9132065,13.3328951 C17.8903692,14.0553963 18.7095937,14.9846624 19.3263661,16.0302472 C20.1252597,17.3815959 20.58709,18.9258113 20.688102,20.4907672 C20.6949503,20.6755086 20.586876,20.8581117 20.4216615,20.9412881 C20.3398032,20.9865112 20.2472312,20.9976967 20.1549601,20.9996512 L20.0631973,20.9994474 C14.7482968,20.9985921 9.43361038,20.999875 4.11870993,20.9988059 C3.83707477,21.0122767 3.58069262,20.7518427 3.61001178,20.4693851 C3.73905889,18.4951757 4.45127909,16.5528257 5.67818968,14.994712 C6.16891111,14.3701409 6.74095576,13.8088607 7.37934304,13.3352472 C7.43091908,13.2978285 7.48891538,13.268535 7.55076382,13.2527123 C7.69842967,13.2142245 7.86214615,13.2471529 7.98284693,13.3403789 C8.61973615,13.8118542 9.33195635,14.1832613 10.0882623,14.4220994 C11.0251914,14.719952 12.0273931,14.8106121 13.0026297,14.6865959 C14.198295,14.538418 15.3434544,14.0579622 16.3097027,13.3431586 C16.4794114,13.2063131 16.7392177,13.201609 16.9132065,13.3328951 Z M13.0948119,17.2727927 L13.0009176,17.2734025 C12.3687366,17.2742578 11.7363416,17.2716919 11.1043745,17.2746854 C10.9066307,17.2896529 10.7270776,17.4348374 10.6710074,17.6249242 C10.6294897,17.7666876 10.6481085,17.9283363 10.7317858,18.051711 C10.8195293,18.1859906 10.9761835,18.2745125 11.1377599,18.2732295 L13.1731945,18.2730157 C13.3533896,18.267884 13.5220283,18.1502825 13.5975733,17.9879923 C13.6461532,17.8887794 13.6525734,17.7739575 13.6337407,17.6666193 C13.5975733,17.4891479 13.4569697,17.3377626 13.2812687,17.2915773 L13.1888012,17.2747963 L13.0948119,17.2727927 Z M14.4324203,4.71334267 C15.1724616,5.09351642 15.812989,5.66399087 16.2782434,6.35313598 C16.7434978,7.03864613 17.0319813,7.84282694 17.1073122,8.66774839 C17.1892775,9.52752267 17.0446078,10.4088929 16.6855015,11.1951127 C16.3345276,11.9695724 15.7796037,12.6503785 15.0932785,13.152644 C14.4593854,13.6179186 13.7137799,13.9307387 12.9367151,14.0524028 C12.074903,14.1894621 11.1769234,14.0992296 10.3624072,13.7855542 C9.60267707,13.4953991 8.91763595,13.0138742 8.38518286,12.3997803 C7.88996726,11.8316578 7.52700888,11.149355 7.33354522,10.4210807 C6.98043124,9.10736438 7.19272765,7.65124332 7.92185452,6.50067248 C8.54183707,5.5044804 9.52542001,4.74007029 10.6468244,4.39025913 C11.0842577,4.25191693 11.5413798,4.17643812 12,4.16253975 C12.8399833,4.13709505 13.6863868,4.32547136 14.4324203,4.71334267 Z M12.0582103,2.00102318 C12.9921433,1.98541425 13.9286444,2.14855968 14.802013,2.47912695 C16.2044105,3.00598192 17.4364573,3.96924556 18.2912071,5.19807489 C18.6558776,5.7212949 18.9544194,6.29070025 19.173136,6.88961289 C19.8900644,7.0027242 20.5412922,7.47013693 20.8663711,8.11972515 C21.2196991,8.79433043 21.2025784,9.64469658 20.8254955,10.3058311 C20.4758056,10.9346787 19.8175155,11.3819923 19.1012292,11.4660239 C18.9285243,11.481419 18.7410529,11.5134922 18.5801186,11.430102 C18.4583477,11.3689492 18.3658961,11.2549826 18.3293006,11.1241241 C18.3023356,11.0345331 18.3151761,10.9402381 18.312608,10.848295 C18.3108959,9.71461605 18.3160321,8.58050942 18.3100399,7.44683044 C17.8550578,6.0347565 16.8853854,4.79844343 15.6330079,4.00345692 C14.9066631,3.53989298 14.0861546,3.22429317 13.2356849,3.08274366 C11.9522761,2.86678444 10.6035947,3.04404206 9.42462202,3.59719701 C8.10440375,4.21000802 7.00418618,5.28146509 6.35852262,6.58534559 C6.21672397,6.86910232 6.09639988,7.16307346 5.99856036,7.4647914 C5.98850196,7.49344342 5.98507783,7.523806 5.98529184,7.5543824 L5.98550585,10.9992527 C5.98400779,11.1852769 5.86651713,11.3646728 5.69573837,11.4395101 C5.57075742,11.5004491 5.42801377,11.4856955 5.29383046,11.4762873 C4.69417871,11.430102 4.11892393,11.1352428 3.73071256,10.6765968 C3.38423284,10.27611 3.18413492,9.75224854 3.17664462,9.22282773 C3.16230606,8.6983248 3.33650895,8.17168365 3.65901972,7.75794 C4.01833995,7.29202403 4.56085143,6.9732169 5.1433825,6.88790232 C5.6736955,5.43840971 6.66947693,4.16446414 7.9466795,3.29677849 C9.14897911,2.47164322 10.5997426,2.01321098 12.0582103,2.00102318 Z M4.99015243,7.95529679 C4.65544318,8.09428045 4.38172634,8.37288922 4.25503332,8.71286462 C4.14524698,9.00280591 4.14267888,9.33209026 4.25118117,9.62267301 C4.37445005,9.96820776 4.65137702,10.2528035 4.99015243,10.3922148 L4.99015243,7.95529679 Z M19.3079614,7.9563659 C19.3077474,8.76781662 19.3073193,9.57905353 19.3081754,10.3905043 C19.6343243,10.2564385 19.9022629,9.98745165 20.031096,9.65902259 C20.1721276,9.31434312 20.1530808,8.90979377 19.981446,8.57944032 C19.8416985,8.29954862 19.5962308,8.0765333 19.3079614,7.9563659 Z" id="形状结合" fill="#FFFFFF" fill-rule="nonzero"></path>
                    </g>
                </g>
            </g>
        </g>
    </g>
</svg>