<?xml version="1.0" encoding="UTF-8"?>
<svg width="7px" height="7px" viewBox="0 0 7 7" version="1.1" xmlns="http://www.w3.org/2000/svg" xmlns:xlink="http://www.w3.org/1999/xlink">
    <title>形状结合备份 2</title>
    <g id="原型图" stroke="none" stroke-width="1" fill="none" fill-rule="evenodd">
        <g id="首页备份-3" transform="translate(-1517, -4624)" fill="#0167FE" fill-rule="nonzero">
            <g id="编组-55备份" transform="translate(360, 4593)">
                <g id="日历备份" transform="translate(800, 0)">
                    <g id="按钮" transform="translate(210, 22)">
                        <g id="下个月" transform="translate(101, 0)">
                            <path d="M49.3824598,9.11535057 C49.5371784,8.96154981 49.7870547,8.96154981 49.9417734,9.11535057 L52.768442,11.943186 L52.7957427,11.9718867 C53.0783177,12.2826476 53.0662879,12.7607562 52.768442,13.056913 L49.9417734,15.8849817 L49.9203062,15.9048156 C49.7632729,16.0394425 49.5291509,16.030809 49.3824598,15.8849817 C49.2282227,15.7312113 49.2282227,15.4817719 49.3824598,15.3280015 L52.2091285,12.5001662 L49.3824598,9.67233078 L49.3623926,9.65086359 C49.228456,9.49615982 49.2352229,9.26235415 49.3824598,9.11535057 Z M46.1157137,9.11535057 C46.2704323,8.96154981 46.5203087,8.96154981 46.6750273,9.11535057 L49.501696,11.943186 L49.5289967,11.9718867 C49.8115717,12.2826476 49.7995418,12.7607562 49.501696,13.056913 L46.6750273,15.8849817 L46.6535601,15.9048156 C46.4965269,16.0394425 46.2624048,16.030809 46.1157137,15.8849817 C45.9614766,15.7312113 45.9614766,15.4817719 46.1157137,15.3280015 L48.9423824,12.5001662 L46.1157137,9.67233078 L46.0956466,9.65086359 C45.96171,9.49615982 45.9684768,9.26235415 46.1157137,9.11535057 Z" id="形状结合备份-2"></path>
                        </g>
                    </g>
                </g>
            </g>
        </g>
    </g>
</svg>