<?xml version="1.0" encoding="UTF-8"?>
<svg width="18px" height="18px" viewBox="0 0 18 18" version="1.1" xmlns="http://www.w3.org/2000/svg" xmlns:xlink="http://www.w3.org/1999/xlink">
    <title>编组@1x</title>
    <g id="原型图" stroke="none" stroke-width="1" fill="none" fill-rule="evenodd">
        <g id="首页备份-2" transform="translate(-1038, -15)">
            <g id="编组" transform="translate(1038, 15)">
                <rect id="矩形备份-2" fill="#D8D8D8" opacity="0" x="0" y="0" width="18" height="18"></rect>
                <path d="M17.4,15.6020943 L16.8,15.6020943 L16.8,7.20209426 C16.8,5.88209426 15.72,4.80209426 14.4,4.80209426 L10.8,4.80209426 L10.8,15.0020943 C10.8,15.3380943 10.536,15.6020943 10.2,15.6020943 C9.864,15.6020943 9.6,15.3380943 9.6,15.0020943 L9.6,3.60209426 C9.6,2.28209426 8.52,1.20209426 7.2,1.20209426 L3.6,1.20209426 C2.28,1.20209426 1.2,2.28209426 1.2,3.60209426 L1.2,15.6020943 L0.6,15.6020943 C0.264,15.6020943 0,15.8660943 0,16.2020943 C0,16.5380943 0.264,16.8020943 0.6,16.8020943 L17.4,16.8020943 C17.736,16.8020943 18,16.5380943 18,16.2020943 C18,15.8660943 17.736,15.6020943 17.4,15.6020943 Z M6.6,13.2020943 L4.2,13.2020943 C3.864,13.2020943 3.6,12.9380943 3.6,12.6020943 C3.6,12.2660943 3.864,12.0020943 4.2,12.0020943 L6.6,12.0020943 C6.936,12.0020943 7.2,12.2660943 7.2,12.6020943 C7.2,12.9380943 6.936,13.2020943 6.6,13.2020943 Z M6.6,9.60209426 L4.2,9.60209426 C3.864,9.60209426 3.6,9.33809426 3.6,9.00209426 C3.6,8.66609426 3.864,8.40209426 4.2,8.40209426 L6.6,8.40209426 C6.936,8.40209426 7.2,8.66609426 7.2,9.00209426 C7.2,9.33809426 6.936,9.60209426 6.6,9.60209426 Z M6.6,6.00209426 L4.2,6.00209426 C3.864,6.00209426 3.6,5.73809426 3.6,5.40209426 C3.6,5.06609426 3.864,4.80209426 4.2,4.80209426 L6.6,4.80209426 C6.936,4.80209426 7.2,5.06609426 7.2,5.40209426 C7.2,5.73809426 6.936,6.00209426 6.6,6.00209426 Z M15,13.2020943 L12.6,13.2020943 C12.264,13.2020943 12,12.9380943 12,12.6020943 C12,12.2660943 12.264,12.0020943 12.6,12.0020943 L15,12.0020943 C15.336,12.0020943 15.6,12.2660943 15.6,12.6020943 C15.6,12.9380943 15.336,13.2020943 15,13.2020943 Z M15,9.60209426 L12.6,9.60209426 C12.264,9.60209426 12,9.33809426 12,9.00209426 C12,8.66609426 12.264,8.40209426 12.6,8.40209426 L15,8.40209426 C15.336,8.40209426 15.6,8.66609426 15.6,9.00209426 C15.6,9.33809426 15.336,9.60209426 15,9.60209426 Z" id="形状" fill="#0167FE" fill-rule="nonzero"></path>
            </g>
        </g>
    </g>
</svg>