<?xml version="1.0" encoding="UTF-8"?>
<svg width="14px" height="10px" viewBox="0 0 14 10" version="1.1" xmlns="http://www.w3.org/2000/svg" xmlns:xlink="http://www.w3.org/1999/xlink">
    <title>编组</title>
    <defs>
        <path d="M5.06143001,5.00703895 C5.06143001,6.06875951 5.92339584,6.92945409 6.98668457,6.92945409 C8.0499733,6.92945409 8.91193913,6.06875951 8.91193913,5.00703895 C8.91193913,3.94531838 8.0499733,3.08462381 6.98668457,3.08462381 C5.92339584,3.08462381 5.06143001,3.94531838 5.06143001,5.00703895 L5.06143001,5.00703895 Z" id="path-1"></path>
        <path d="M13.996867,4.91944314 C13.996867,4.86313155 13.9827683,4.80838417 13.9592704,4.75832942 C13.3216963,3.45534178 12.3332214,2.27279837 11.1739957,1.42968872 C9.88788184,0.49429063 8.44511581,0 6.99921674,0 C5.55331767,0 4.11055164,0.49429063 2.82287121,1.42968872 C1.66364552,2.27279837 0.673604118,3.45534178 0.0375965089,4.75832942 C0.0125321696,4.80838417 0,4.86313155 0,4.91944314 L0,4.99296105 C0,5.02737369 0,5.06178633 0.0015665212,5.09776318 C0.00313304241,5.15251056 0.015665212,5.20725794 0.0391630301,5.25731269 C0.675170639,6.55873612 1.66521204,7.7381511 2.82757077,8.57813233 C4.11211816,9.50883779 5.55645071,10 7.00234978,10 C8.44824885,10 9.89101488,9.50883779 11.1755623,8.57813233 C12.334788,7.7381511 13.3248294,6.55873612 13.960837,5.25731269 C13.9859013,5.20725794 13.9984335,5.15251056 13.9984335,5.09776318 C13.9984335,5.06335054 14,5.0289379 14,4.99296105 C13.9984335,4.96793368 13.996867,4.94447051 13.996867,4.91944314 L13.996867,4.91944314 Z M6.98668457,7.6802753 C5.5110216,7.6802753 4.30949983,6.48052557 4.30949983,5.00703895 C4.30949983,3.53355232 5.5110216,2.3338026 6.98668457,2.3338026 C8.46234754,2.3338026 9.66386931,3.53355232 9.66386931,5.00703895 C9.66386931,6.48052557 8.46234754,7.6802753 6.98668457,7.6802753 Z" id="path-2"></path>
    </defs>
    <g id="原型图" stroke="none" stroke-width="1" fill="none" fill-rule="evenodd">
        <g id="首页备份-2" transform="translate(-376, -2541)" fill-rule="nonzero">
            <g id="供需大厅" transform="translate(0, 2063)">
                <g id="编组-18" transform="translate(360, 142)">
                    <g id="浏览量" transform="translate(16, 332)">
                        <g id="编组" transform="translate(0, 4)">
                            <g id="路径">
                                <use fill="#C7D4EB" xlink:href="#path-1"></use>
                                <use fill="#98A3B7" xlink:href="#path-1"></use>
                            </g>
                            <g id="形状">
                                <use fill="#C7D4EB" xlink:href="#path-2"></use>
                                <use fill="#98A3B7" xlink:href="#path-2"></use>
                            </g>
                        </g>
                    </g>
                </g>
            </g>
        </g>
    </g>
</svg>