<?xml version="1.0" encoding="UTF-8"?>
<svg width="18px" height="18px" viewBox="0 0 18 18" version="1.1" xmlns="http://www.w3.org/2000/svg" xmlns:xlink="http://www.w3.org/1999/xlink">
    <title>编组@1x</title>
    <g id="原型图" stroke="none" stroke-width="1" fill="none" fill-rule="evenodd">
        <g id="首页备份-2" transform="translate(-1188, -15)">
            <g id="编组" transform="translate(1188, 15)">
                <rect id="矩形备份-2" fill="#D8D8D8" opacity="0" x="0" y="0" width="18" height="18"></rect>
                <path d="M5.01975731,1.22852699 C6.15877799,0.446819892 7.53318547,0.0125156637 8.91489176,0.00096932928 C9.79967037,-0.0138180815 10.6868819,0.140740746 11.5142837,0.453909747 C12.8428709,0.953035502 14.0100731,1.86560106 14.8198361,3.02975516 C15.1653134,3.52543727 15.4481425,4.06487392 15.6553477,4.63226484 C16.334543,4.73942293 16.9514957,5.18223498 17.2594651,5.79763435 C17.5941969,6.43673409 17.5779773,7.24234413 17.2207409,7.86868213 C16.8894557,8.46443247 16.2658125,8.8882032 15.5872254,8.96781214 C15.4236103,8.98239698 15.2460058,9.01278207 15.0935417,8.93378084 C14.9781798,8.8758466 14.8905941,8.76787824 14.8559247,8.64390707 C14.8303788,8.55903139 14.8425435,8.46969922 14.8401106,8.38259529 C14.8384886,7.30858362 14.8433545,6.23416682 14.8376776,5.16015515 C14.4066421,3.82240089 13.488005,2.65115693 12.3015421,1.89801182 C11.613426,1.45884598 10.8361021,1.15985669 10.030394,1.02575715 C8.81453305,0.821164209 7.53683487,0.989092476 6.41991338,1.51313401 C5.16918028,2.0936918 4.1268689,3.1087564 3.51518763,4.34401162 C3.38085207,4.61283377 3.26686083,4.89133275 3.17417076,5.1771708 C3.16464175,5.20431481 3.16139783,5.23307937 3.16160058,5.26204649 C3.16241156,6.34983273 3.16200607,7.43761898 3.16180332,8.52560779 C3.16038411,8.70184131 3.04907717,8.87179525 2.88728677,8.9426938 C2.76888376,9.00042547 2.63365293,8.98644833 2.5065319,8.97753537 C1.93844077,8.93378084 1.39346256,8.65444057 1.02568337,8.21993378 C0.697439424,7.84052528 0.50787297,7.34423546 0.5007769,6.8426789 C0.487192994,6.34578139 0.652227318,5.8468582 0.957763837,5.45489053 C1.29817247,5.01349645 1.81213072,4.71146864 2.36400226,4.6306443 C2.86640404,3.25744077 3.80977593,2.05054498 5.01975731,1.22852699 M1.5224083,6.35955596 C1.41840018,6.63423718 1.41596724,6.94619078 1.51875889,7.2214797 C1.63553994,7.54882841 1.8978918,7.81844544 2.21883693,7.95051931 C2.21944516,7.18096624 2.21944516,6.41141318 2.21883693,5.64186012 C1.90174395,5.77352885 1.64243326,6.037474 1.5224083,6.35955596 M15.783077,5.64287296 C15.7828742,6.41161575 15.7824687,7.18015597 15.7832797,7.94889877 C16.0922629,7.82188909 16.3460995,7.56705946 16.4681519,7.25591613 C16.6017608,6.92937769 16.5837165,6.54612042 16.4211151,6.23315398 C16.2887227,5.96799343 16.0561743,5.75671576 15.783077,5.64287296 L15.783077,5.64287296 Z" id="形状" fill="#0167FE" fill-rule="nonzero"></path>
                <path d="M8.85974515,2.04872187 C9.65551877,2.02461636 10.4573747,2.20307813 11.1641433,2.57053516 C11.8652351,2.93069977 12.4720505,3.47114925 12.9128179,4.12402356 C13.3535852,4.77345423 13.6268853,5.53530974 13.6982515,6.31681427 C13.7759028,7.13133726 13.6388472,7.96631955 13.2986413,8.71115941 C12.9661398,9.44485806 12.4404223,10.0898323 11.7902195,10.5656628 C11.1896892,11.0064492 10.4833261,11.3028051 9.74715945,11.4180658 C8.93070586,11.5479115 8.07998838,11.4624281 7.30834141,11.1652619 C6.58859712,10.8903781 5.93961079,10.4341966 5.43518155,9.85242341 C4.96602992,9.31420217 4.62217462,8.66781001 4.43889326,7.97786589 C4.10436422,6.73329257 4.30548713,5.35380946 4.99623891,4.26379498 C5.58359079,3.32003406 6.51540622,2.59585607 7.57778934,2.26445601 C7.99219985,2.13339499 8.42526289,2.06188874 8.85974515,2.04872187 Z" id="路径" fill="#0167FE" fill-rule="nonzero"></path>
                <path d="M4.6446793,10.6604643 C4.78457326,10.6240021 4.93967309,10.6551975 5.05402119,10.7435168 C5.65738993,11.1901777 6.33212486,11.542037 7.04862523,11.7683047 C7.93624227,12.0504809 8.88569649,12.1363694 9.80960487,12.0188804 C10.9423405,11.8785013 12.0272283,11.4233326 12.9426213,10.7461502 C13.103398,10.6165072 13.3495303,10.6120507 13.5143619,10.736427 C14.440095,11.4209018 15.2162023,12.3012591 15.800513,13.2918131 C16.5573596,14.5720383 16.9948831,16.0349791 17.0905786,17.5175689 C17.0970665,17.6925871 16.9946803,17.8655795 16.8381613,17.9443782 C16.7347614,18.0015021 16.6133172,18.0012996 16.4985636,17.9994765 C11.4633948,17.9986662 6.42842867,17.9998816 1.39325982,17.9988688 C1.12644757,18.0116305 0.883559215,17.7649036 0.911335262,17.4973122 C1.03359042,15.6270086 1.70832535,13.7868875 2.87066169,12.3107798 C3.33555567,11.7190808 3.87749271,11.1873417 4.48228066,10.7386552 C4.53114217,10.7032059 4.58608603,10.6754542 4.6446793,10.6604643 M8.01125787,14.4707546 C7.82392161,14.4849343 7.65381866,14.6224775 7.60069951,14.8025598 C7.561367,14.9368619 7.57900581,15.0900028 7.65827905,15.2068841 C7.74140445,15.3340963 7.88981369,15.4179592 8.04288607,15.4167438 C8.68558731,15.4163386 9.32849129,15.4167438 9.97119253,15.4165412 C10.1419037,15.4116796 10.3016667,15.3002676 10.3732356,15.146519 C10.4192587,15.0525278 10.425341,14.9437492 10.4074995,14.8420604 C10.3732356,14.6739296 10.2400322,14.530512 10.0735787,14.4867574 C9.98720937,14.4600186 9.89637967,14.4715649 9.80798291,14.4695392 C9.20907456,14.4703495 8.60996347,14.4679187 8.01125787,14.4707546 Z" id="形状" fill="#0167FE" fill-rule="nonzero"></path>
                <path d="M8.01125787,14.4707546 C8.60996347,14.4679187 9.20907456,14.4703495 9.80798291,14.4695392 C9.89637967,14.4715649 9.98720937,14.4600186 10.0735787,14.4867574 C10.2400322,14.530512 10.3732356,14.6739296 10.4074995,14.8420604 C10.425341,14.9437492 10.4192587,15.0525278 10.3732356,15.146519 C10.3016667,15.3002676 10.1419037,15.4116796 9.97119253,15.4165412 C9.32849129,15.4167438 8.68558731,15.4163386 8.04288607,15.4167438 C7.88981369,15.4179592 7.74140445,15.3340963 7.65827905,15.2068841 C7.57900581,15.0900028 7.561367,14.9368619 7.60069951,14.8025598 C7.65381866,14.6224775 7.82392161,14.4849343 8.01125787,14.4707546 L8.01125787,14.4707546 Z" id="路径" fill="#FFFFFF" fill-rule="nonzero"></path>
            </g>
        </g>
    </g>
</svg>