<?xml version="1.0" encoding="UTF-8"?>
<svg width="16px" height="16px" viewBox="0 0 16 16" version="1.1" xmlns="http://www.w3.org/2000/svg" xmlns:xlink="http://www.w3.org/1999/xlink">
    <title>个人中心</title>
    <g id="原型图" stroke="none" stroke-width="1" fill="none" fill-rule="evenodd">
        <g id="登录状态-UI" transform="translate(-1432, -60)">
            <g id="编组-8" transform="translate(1420, 10)">
                <g id="编组-19" transform="translate(0, 28)">
                    <g id="个人中心" transform="translate(12, 22)">
                        <rect id="矩形备份-11" fill="#D8D8D8" opacity="0" x="0" y="0" width="16" height="16"></rect>
                        <path d="M14.1775797,14.2273794 C14.1772508,14.2173331 14.1756472,14.2074376 14.174633,14.1973228 L14.1726319,14.1771617 C14.1726319,14.1284379 14.1657654,14.0816055 14.155212,14.0360614 C13.8715998,11.8164909 12.4260453,9.9629312 10.4494906,9.10943577 C11.5934648,8.32345466 12.3444552,7.00323882 12.3444552,5.50645239 C12.3444552,3.09648217 10.3982587,1.14285714 7.99751243,1.14285714 C5.59673875,1.14285714 3.65054222,3.09649588 3.65054222,5.50645239 C3.65054222,7.00373223 4.40205348,8.32438664 5.54668551,9.11024441 C3.58770155,9.95698293 2.15017859,11.7860094 1.84974952,13.9801558 C1.82890315,14.0424209 1.81500555,14.1078519 1.81500555,14.177148 L1.81996701,14.227256 L1.82070712,14.2348764 C1.82070712,14.5785881 2.09822025,14.8571429 2.44049284,14.8571429 C2.78276544,14.8571429 3.06025117,14.5785881 3.06025117,14.2348764 L3.05949736,14.2273657 L3.07213402,14.2273657 C3.36144777,11.84885 5.31891039,9.9881223 7.73506188,9.86141304 C7.82192864,9.86659379 7.90928881,9.87003393 7.99751245,9.87003393 C8.08588684,9.87003393 8.17341147,9.86659379 8.26045641,9.8613171 C10.6767861,9.98777964 12.6345228,11.8486719 12.9239051,14.2273657 L12.9378849,14.2273657 L12.938625,14.2348764 C12.938625,14.5785881 13.2161381,14.8571429 13.5585752,14.8571429 C13.9008478,14.8571429 14.1783609,14.5785881 14.1783609,14.2348764 L14.1775797,14.2273794 Z M4.8914431,5.50771332 C4.8914431,3.78630407 6.28146209,2.39077539 7.99634743,2.39077539 C9.71121906,2.39077539 11.1013888,3.78631778 11.1013888,5.50771332 C11.1013888,7.13296334 9.86176254,8.466227 8.28001443,8.61026027 C8.18688415,8.60605262 8.09324677,8.60355819 7.99900634,8.60355819 C7.90361463,8.60355819 7.80870261,8.60606633 7.71431142,8.61032881 C6.13182319,8.46704933 4.8914431,7.13353897 4.8914431,5.50771332 Z" id="形状" fill="#6D7280" fill-rule="nonzero"></path>
                    </g>
                </g>
            </g>
        </g>
    </g>
</svg>