<?xml version="1.0" encoding="UTF-8"?>
<svg width="24px" height="24px" viewBox="0 0 24 24" version="1.1" xmlns="http://www.w3.org/2000/svg" xmlns:xlink="http://www.w3.org/1999/xlink">
    <title>编组备份</title>
    <g id="原型图" stroke="none" stroke-width="1" fill="none" fill-rule="evenodd">
        <g id="登录修改" transform="translate(-1430, -840)">
            <g id="编组-5" transform="translate(1033, 200)">
                <g id="编组-4" transform="translate(188, 590)">
                    <g id="编组备份" transform="translate(209, 50)">
                        <rect id="矩形备份-5" fill="#FFBCBC" opacity="0" x="0" y="0" width="24" height="24"></rect>
                        <path d="M11.541143,3.17342333 C11.6414024,3.11557058 11.7365202,3.0422904 11.8509187,3.01657807 C12.001677,2.98105878 12.160261,3.00306298 12.2956589,3.07828769 L20.6274675,8.08062322 C20.8192682,8.19647923 20.9512104,8.39003762 20.9889665,8.61093993 C21.0267226,8.83184224 20.9665596,9.05824712 20.8241301,9.23125038 C20.6871298,9.39397253 20.4853949,9.48803905 20.2727037,9.48837377 C19.8960885,9.49094501 19.5181879,9.48837377 19.1415726,9.4896594 L19.1415726,18.3719869 L19.5875982,18.3719869 C19.7701216,18.3732725 19.9565011,18.3591307 20.1338831,18.4105554 C20.5348619,18.5257874 20.8421814,18.8489022 20.9372432,19.2552057 C20.9848021,19.4377633 20.9668069,19.6280346 20.970663,19.8157347 C20.9766009,20.111604 20.8710698,20.3988859 20.6750265,20.6205309 C20.4665698,20.8573432 20.1678077,20.9950796 19.8523857,20.9997879 L4.15408587,20.9997879 C3.8619451,20.9990801 3.58176406,20.8836627 3.37386251,20.6783837 C3.14847477,20.4568098 3.02196255,20.1536798 3.0229548,19.8375902 C3.02681093,19.6498901 3.00881566,19.4583332 3.05123308,19.27449 C3.11507421,18.9835412 3.28805402,18.7281641 3.53453454,18.5609726 C3.71791542,18.4372713 3.93418238,18.3714386 4.15537124,18.3719869 L4.83533526,18.3719869 L4.83533526,9.4896594 L3.72862634,9.4896594 C3.53186971,9.49056111 3.34313771,9.41171479 3.20547822,9.27110451 C2.96960499,9.01181521 2.93295848,8.628002 3.11550189,8.32874729 C3.18204703,8.22632881 3.27078918,8.14020643 3.37514788,8.07676637 L11.541143,3.17342333 M11.9331828,6.9338529 C11.846412,6.99122752 11.7798646,7.07442734 11.7429471,7.17169204 C11.5012964,7.6769395 11.2557895,8.18218695 11.0141388,8.68872003 L9.32643979,8.94070096 C9.15977269,8.96474361 9.0212268,9.08138322 8.9691052,9.24153533 C8.91509498,9.40613154 8.95834521,9.58712043 9.08093293,9.70949989 L10.3020403,10.9295504 L10.0154014,12.6471346 C9.99032584,12.780775 10.0256156,12.918666 10.1118047,13.0238204 C10.1992102,13.1330978 10.341887,13.1935218 10.4794223,13.1806656 C10.5679216,13.170097 10.6528035,13.1393051 10.7274999,13.0906725 C11.2043745,12.8309778 11.6825344,12.5751401 12.1606944,12.3167311 C12.668418,12.5879962 13.1735708,12.8631183 13.6812944,13.1356691 C13.8188297,13.2076636 13.9923555,13.1999499 14.1208931,13.1099567 C14.2651358,13.0115328 14.3401123,12.8390547 14.3136995,12.6664189 L14.0232045,10.930836 L15.1749016,9.78020883 C15.2551754,9.7145969 15.3167909,9.62902853 15.3535689,9.53208475 C15.4192578,9.33308183 15.3414182,9.11487832 15.1646186,9.00241057 C15.0797838,8.94841466 14.9795244,8.93812972 14.8831212,8.92527355 L13.3085353,8.69000566 L12.5681586,7.15112217 C12.5334713,7.06860903 12.4765017,6.99738377 12.4036305,6.94542346 C12.2630835,6.84829149 12.0783331,6.8437476 11.9331828,6.9338529 M7.41508535,15.8688907 C7.24872187,15.9146771 7.12861387,16.0594497 7.11430731,16.2314347 C7.10916581,16.3407121 7.10145355,16.4564176 7.15158322,16.5566957 C7.21871542,16.7036175 7.36672537,16.7965832 7.52819846,16.7932493 L16.3561624,16.7932493 C16.4487094,16.7932493 16.5451127,16.800963 16.6325182,16.7611088 C16.7782024,16.6982337 16.8747383,16.5571549 16.8805958,16.3985649 C16.8831666,16.2995724 16.8895935,16.1941518 16.8471761,16.102873 C16.784082,15.9540813 16.6385751,15.8570585 16.4769877,15.8560345 L7.63102856,15.8560345 C7.55904749,15.8560345 7.48578105,15.850892 7.41508535,15.8688907 M7.41508535,17.8384558 C7.24954555,17.8839134 7.12963981,18.0274172 7.11430731,18.1984286 C7.10916581,18.3141341 7.10145355,18.4349821 7.15672474,18.5391171 C7.22613505,18.6805349 7.37780945,18.7692425 7.52948383,18.7641 L16.4757023,18.7641 C16.6799271,18.7625925 16.8516991,18.6105485 16.8780251,18.4079842 C16.8921642,18.2537101 16.8883081,18.076295 16.775195,17.9580182 C16.6800771,17.8487408 16.5322589,17.8140291 16.3947236,17.8243141 L7.67087521,17.8243141 C7.58604038,17.8255997 7.49992016,17.817886 7.41637072,17.8371702 L7.41508535,17.8384558 Z" id="形状" fill="#FFFFFF" fill-rule="nonzero"></path>
                    </g>
                </g>
            </g>
        </g>
    </g>
</svg>