<?xml version="1.0" encoding="UTF-8"?>
<svg width="16px" height="16px" viewBox="0 0 16 16" version="1.1" xmlns="http://www.w3.org/2000/svg" xmlns:xlink="http://www.w3.org/1999/xlink">
    <title>退出登录</title>
    <g id="原型图" stroke="none" stroke-width="1" fill="none" fill-rule="evenodd">
        <g id="登录状态-UI" transform="translate(-1432, -90)">
            <g id="编组-8" transform="translate(1420, 10)">
                <g id="编组-19" transform="translate(0, 28)">
                    <g id="退出登录" transform="translate(12, 52)">
                        <rect id="矩形备份-12" fill="#D8D8D8" opacity="0" x="0" y="0" width="16" height="16"></rect>
                        <path d="M9.68658571,1.75717477 C10.706814,1.75717477 11.5357494,2.58762842 11.5357494,3.60633847 L11.5357494,4.37454605 C11.5357494,4.72221312 11.254883,5.00307952 10.9072159,5.00307952 C10.5595489,5.00307952 10.2786825,4.72221312 10.2786825,4.37454605 L10.2786825,3.60633847 C10.2786825,3.27992616 10.012998,3.01424172 9.68658571,3.01424172 L4.33038741,3.01424172 C4.0039751,3.01424172 3.73829066,3.27992616 3.73829066,3.60633847 L3.73829066,12.3936615 C3.73829066,12.7200738 4.0039751,12.9857583 4.33038741,12.9857583 L9.68658571,12.9857583 C10.012998,12.9857583 10.2786825,12.7200738 10.2786825,12.3936615 L10.2786825,11.718064 C10.2786825,11.3703969 10.5595489,11.0895305 10.9072159,11.0895305 C11.254883,11.0895305 11.5357494,11.3703969 11.5357494,11.718064 L11.5357494,12.3936615 C11.5357494,13.4123716 10.7052958,14.2428252 9.68658571,14.2428252 L4.33038741,14.2428252 C3.31015917,14.2428252 2.48122371,13.4123716 2.48122371,12.3936615 L2.48122371,3.60633847 C2.48122371,2.58611022 3.31167736,1.75717477 4.33038741,1.75717477 L9.68658571,1.75717477 Z M12.7548614,5.4403202 L14.8681914,7.55516834 C15.1141393,7.80111622 15.1141393,8.19888378 14.8681914,8.44483166 L12.7548614,10.5581616 C12.6318875,10.6811355 12.4709586,10.7433816 12.3100298,10.7433816 C12.1491009,10.7433816 11.9881721,10.6826537 11.8651981,10.5596798 C11.6192502,10.3137319 11.6192502,9.91596436 11.8651981,9.67001648 L12.9052237,8.62817477 L8.10007006,8.62853347 C7.75240299,8.62853347 7.47153658,8.34766707 7.47153658,8 C7.47153658,7.65233293 7.75240299,7.37146653 8.10007006,7.37146653 L12.9062237,7.37117477 L11.8651981,6.32998352 C11.6192502,6.08403564 11.6192502,5.68626808 11.8651981,5.4403202 C12.111146,5.19437232 12.5089136,5.19437232 12.7548614,5.4403202 Z" id="形状结合" fill="#6D7280" fill-rule="nonzero"></path>
                    </g>
                </g>
            </g>
        </g>
    </g>
</svg>