<?xml version="1.0" encoding="UTF-8"?>
<svg width="18px" height="18px" viewBox="0 0 18 18" version="1.1" xmlns="http://www.w3.org/2000/svg" xmlns:xlink="http://www.w3.org/1999/xlink">
    <title>编组@1x</title>
    <g id="原型图" stroke="none" stroke-width="1" fill="none" fill-rule="evenodd">
        <g id="首页备份-2" transform="translate(-1440, -15)" fill="#0167FE" fill-rule="nonzero">
            <g id="编组" transform="translate(1440, 15)">
                <path d="M8.54114303,0.173423333 C8.64140237,0.115570577 8.73652022,0.0422903974 8.8509187,0.0165780654 C9.00167705,-0.0189412223 9.16026096,0.00306298304 9.29565886,0.0782876904 L17.6274675,5.08062322 C17.8192682,5.19647923 17.9512104,5.39003762 17.9889665,5.61093993 C18.0267226,5.83184224 17.9665596,6.05824712 17.8241301,6.23125038 C17.6871298,6.39397253 17.4853949,6.48803905 17.2727037,6.48837377 C16.8960885,6.49094501 16.5181879,6.48837377 16.1415726,6.4896594 L16.1415726,15.3719869 L16.5875982,15.3719869 C16.7701216,15.3732725 16.9565011,15.3591307 17.1338831,15.4105554 C17.5348619,15.5257874 17.8421814,15.8489022 17.9372432,16.2552057 C17.9848021,16.4377633 17.9668069,16.6280346 17.970663,16.8157347 C17.9766009,17.111604 17.8710698,17.3988859 17.6750265,17.6205309 C17.4665698,17.8573432 17.1678077,17.9950796 16.8523857,17.9997879 L1.15408587,17.9997879 C0.8619451,17.9990801 0.581764055,17.8836627 0.373862507,17.6783837 C0.148474771,17.4568098 0.0219625522,17.1536798 0.0229548024,16.8375902 C0.0268109318,16.6498901 0.00881565548,16.4583332 0.0512330788,16.27449 C0.115074209,15.9835412 0.288054019,15.7281641 0.534534535,15.5609726 C0.717915422,15.4372713 0.934182376,15.3714386 1.15537124,15.3719869 L1.83533526,15.3719869 L1.83533526,6.4896594 L0.72862634,6.4896594 C0.531869709,6.49056111 0.343137712,6.41171479 0.205478219,6.27110451 C-0.0303950083,6.01181521 -0.0670415189,5.628002 0.11550189,5.32874729 C0.182047027,5.22632881 0.270789178,5.14020643 0.375147877,5.07676637 L8.54114303,0.173423333 M8.93318277,3.9338529 C8.84641199,3.99122752 8.7798646,4.07442734 8.74294709,4.17169204 C8.50129636,4.6769395 8.2557895,5.18218695 8.01413878,5.68872003 L6.32643979,5.94070096 C6.15977269,5.96474361 6.0212268,6.08138322 5.9691052,6.24153533 C5.91509498,6.40613154 5.95834521,6.58712043 6.08093293,6.70949989 L7.30204035,7.92955038 L7.01540144,9.64713462 C6.99032584,9.78077505 7.02561555,9.91866602 7.11180466,10.0238204 C7.19921024,10.1330978 7.341887,10.1935218 7.47942227,10.1806656 C7.56792164,10.170097 7.65280349,10.1393051 7.72749987,10.0906725 C8.20437445,9.83097783 8.68253439,9.57514007 9.16069436,9.31673105 C9.66841797,9.58799622 10.1735708,9.86311826 10.6812944,10.1356691 C10.8188297,10.2076636 10.9923555,10.1999499 11.1208931,10.1099567 C11.2651358,10.0115328 11.3401123,9.83905467 11.3136995,9.66641886 L11.0232045,7.930836 L12.1749016,6.78020883 C12.2551754,6.7145969 12.3167909,6.62902853 12.3535689,6.53208475 C12.4192578,6.33308183 12.3414182,6.11487832 12.1646186,6.00241057 C12.0797838,5.94841466 11.9795244,5.93812972 11.8831212,5.92527355 L10.3085353,5.69000566 L9.56815862,4.15112217 C9.53347125,4.06860903 9.47650171,3.99738377 9.40363046,3.94542346 C9.26308351,3.84829149 9.07833305,3.8437476 8.93318277,3.9338529 M4.41508535,12.8688907 C4.24872187,12.9146771 4.12861387,13.0594497 4.11430731,13.2314347 C4.10916581,13.3407121 4.10145355,13.4564176 4.15158322,13.5566957 C4.21871542,13.7036175 4.36672537,13.7965832 4.52819846,13.7932493 L13.3561624,13.7932493 C13.4487094,13.7932493 13.5451127,13.800963 13.6325182,13.7611088 C13.7782024,13.6982337 13.8747383,13.5571549 13.8805958,13.3985649 C13.8831666,13.2995724 13.8895935,13.1941518 13.8471761,13.102873 C13.784082,12.9540813 13.6385751,12.8570585 13.4769877,12.8560345 L4.63102856,12.8560345 C4.55904749,12.8560345 4.48578105,12.850892 4.41508535,12.8688907 M4.41508535,14.8384558 C4.24954555,14.8839134 4.12963981,15.0274172 4.11430731,15.1984286 C4.10916581,15.3141341 4.10145355,15.4349821 4.15672474,15.5391171 C4.22613505,15.6805349 4.37780945,15.7692425 4.52948383,15.7641 L13.4757023,15.7641 C13.6799271,15.7625925 13.8516991,15.6105485 13.8780251,15.4079842 C13.8921642,15.2537101 13.8883081,15.076295 13.775195,14.9580182 C13.6800771,14.8487408 13.5322589,14.8140291 13.3947236,14.8243141 L4.67087521,14.8243141 C4.58604038,14.8255997 4.49992016,14.817886 4.41637072,14.8371702 L4.41508535,14.8384558 Z" id="形状"></path>
            </g>
        </g>
    </g>
</svg>