<?xml version="1.0" encoding="UTF-8"?>
<svg width="20px" height="17px" viewBox="0 0 20 17" version="1.1" xmlns="http://www.w3.org/2000/svg" xmlns:xlink="http://www.w3.org/1999/xlink">
    <title>消息 icon</title>
    <g id="页面-1" stroke="none" stroke-width="1" fill="none" fill-rule="evenodd">
        <g id="更新-需求详情-UI" transform="translate(-1039, -259)" fill="#FFFFFF" fill-rule="nonzero">
            <g id="编组-10" transform="translate(360, 220)">
                <g id="编组-4" transform="translate(656, 23)">
                    <g id="消息-icon" transform="translate(23, 16)">
                        <path d="M2,14.0973451 L7.46376813,14.0973451 L7.46376813,14.0973451 L10,17 L12.5362319,14.0973451 L18,14.0973451 C19.1045695,14.0973451 20,13.2019146 20,12.0973451 L20,2 C20,0.8954305 19.1045695,1.75920346e-15 18,0 L2,0 C0.8954305,2.02906125e-16 -1.3527075e-16,0.8954305 0,2 L0,12.0973451 C1.3527075e-16,13.2019146 0.8954305,14.0973451 2,14.0973451 Z M4.52898552,9 C3.73188406,9 3.11594202,8.39823007 3.11594202,7.61946903 C3.11594202,6.84070799 3.73188406,6.23893806 4.52898552,6.23893806 C5.32608698,6.23893806 5.942029,6.84070799 5.942029,7.61946903 C5.942029,8.39823007 5.32608695,9 4.52898552,9 Z M10,9 C9.20289854,9 8.58695653,8.39823007 8.58695653,7.61946903 C8.58695653,6.84070799 9.20289857,6.23893806 10,6.23893806 C10.7971014,6.23893806 11.4130435,6.84070799 11.4130435,7.61946903 C11.4130435,8.39823007 10.7971015,9 10,9 Z M15.4710145,9 C14.673913,9 14.057971,8.39823007 14.057971,7.61946903 C14.057971,6.84070799 14.673913,6.23893806 15.4710145,6.23893806 C16.2681159,6.23893806 16.884058,6.84070799 16.884058,7.61946903 C16.884058,8.39823007 16.2318841,9 15.4710145,9 Z" id="形状"></path>
                    </g>
                </g>
            </g>
        </g>
    </g>
</svg>