<?xml version="1.0" encoding="UTF-8"?>
<svg width="7px" height="7px" viewBox="0 0 7 7" version="1.1" xmlns="http://www.w3.org/2000/svg" xmlns:xlink="http://www.w3.org/1999/xlink">
    <title>形状结合备份 2</title>
    <g id="原型图" stroke="none" stroke-width="1" fill="none" fill-rule="evenodd">
        <g id="首页备份-3" transform="translate(-1376, -4624)" fill="#0167FE" fill-rule="nonzero">
            <g id="编组-55备份" transform="translate(360, 4593)">
                <g id="日历备份" transform="translate(800, 0)">
                    <g id="按钮" transform="translate(210, 22)">
                        <path d="M9.38245977,9.11535057 C9.53717839,8.96154981 9.78705474,8.96154981 9.94177336,9.11535057 L12.768442,11.943186 L12.7957427,11.9718867 C13.0783177,12.2826476 13.0662879,12.7607562 12.768442,13.056913 L9.94177336,15.8849817 L9.92030618,15.9048156 C9.76327295,16.0394425 9.52915087,16.030809 9.38245977,15.8849817 C9.22822269,15.7312113 9.22822269,15.4817719 9.38245977,15.3280015 L12.2091285,12.5001662 L9.38245977,9.67233078 L9.36239262,9.65086359 C9.22845603,9.49615982 9.23522286,9.26235415 9.38245977,9.11535057 Z M6.11571372,9.11535057 C6.27043234,8.96154981 6.5203087,8.96154981 6.67502732,9.11535057 L9.501696,11.943186 L9.52899667,11.9718867 C9.81157166,12.2826476 9.79954183,12.7607562 9.501696,13.056913 L6.67502732,15.8849817 L6.65356013,15.9048156 C6.4965269,16.0394425 6.26240482,16.030809 6.11571372,15.8849817 C5.96147664,15.7312113 5.96147664,15.4817719 6.11571372,15.3280015 L8.94238241,12.5001662 L6.11571372,9.67233078 L6.09564657,9.65086359 C5.96170998,9.49615982 5.96847681,9.26235415 6.11571372,9.11535057 Z" id="形状结合备份-2" transform="translate(9.5, 12.5002) scale(-1, 1) translate(-9.5, -12.5002)"></path>
                    </g>
                </g>
            </g>
        </g>
    </g>
</svg>