<?xml version="1.0" encoding="UTF-8"?>
<svg width="24px" height="24px" viewBox="0 0 24 24" version="1.1" xmlns="http://www.w3.org/2000/svg" xmlns:xlink="http://www.w3.org/1999/xlink">
    <title>编组备份</title>
    <g id="原型图" stroke="none" stroke-width="1" fill="none" fill-rule="evenodd">
        <g id="登录修改" transform="translate(-1330, -840)">
            <g id="编组-5" transform="translate(1033, 200)">
                <g id="编组-4" transform="translate(188, 590)">
                    <g id="编组备份" transform="translate(109, 50)">
                        <rect id="矩形" fill="#FFBCBC" opacity="0" x="0" y="0" width="24" height="24"></rect>
                        <path d="M11.999035,2.36084598 L12.0413513,2.36712669 C14.4769325,3.21078318 16.9146333,4.05231992 19.3502145,4.89809614 C19.0979654,5.01044235 18.8372374,5.10371091 18.5828687,5.2096979 C17.8981927,5.48314435 17.2156364,5.7565908 16.5309604,6.03003724 C16.6115105,7.05175188 16.5860737,8.08194547 16.4525301,9.09730088 C16.3211062,10.0533036 16.0879348,11.0050668 15.6449091,11.8678009 C15.3205889,12.4994834 14.8648449,13.0760527 14.269198,13.472444 C15.0068674,13.8094827 15.7169803,14.2079938 16.3974168,14.6510194 C17.0630151,15.0898056 17.7031766,15.5773458 18.2606682,16.1496755 C18.669778,16.5715038 19.036493,17.0399663 19.2866223,17.5741407 C19.4731594,17.9747716 19.5876254,18.4156775 19.5834997,18.8608229 C19.5791464,19.2105799 19.4985963,19.5582173 19.3608132,19.8804178 C18.824519,20.1220681 18.2691471,20.3128447 17.7074161,20.4866634 C15.8802003,21.0399155 13.9745541,21.3345593 12.0646685,21.3599962 C12.851092,20.6583623 13.6353957,19.9546087 14.4260587,19.2572142 C14.1186964,18.5386224 13.796496,17.8242701 13.4848942,17.1056782 C13.1075805,16.2429441 12.728147,15.3823297 12.3508333,14.5217153 C12.5458494,14.2313109 12.7408655,13.9409066 12.9337618,13.6505022 C12.6730338,13.8285603 12.3593123,13.9260684 12.0434711,13.9197092 C11.6915942,13.9175894 11.3481964,13.8137222 11.0387143,13.6505022 C11.2167725,13.953625 11.4033096,14.2503886 11.5856072,14.5513916 C11.6068046,14.5789483 11.5771283,14.6107444 11.5686493,14.6404207 C10.9263681,16.1941901 10.2862067,17.7479594 9.64392549,19.3017288 C10.4494267,19.9864047 11.2549278,20.6710807 12.0583092,21.3557567 C9.4637476,21.3917923 6.860707,20.8957732 4.47176013,19.878298 C4.4272456,19.4607093 4.46116143,19.0367613 4.53959181,18.623412 C4.69221308,17.8157911 5.04197017,17.0484452 5.52951034,16.3892061 C5.96617676,15.795679 6.51094992,15.2890611 7.11295605,14.8651131 C7.99052837,14.2461491 8.9804469,13.8031235 9.99792205,13.472444 C9.42983176,12.9764249 8.96560872,12.372299 8.57769632,11.7278981 C8.18766418,11.0728985 7.89090059,10.3649053 7.700124,9.62723585 C7.3970012,8.46561839 7.36308536,7.24464821 7.54962247,6.06183334 C6.71232521,5.6718012 5.87290821,5.28812828 5.03773069,4.89809614 C7.33128926,4.06079888 9.62484783,3.22562135 11.9162867,2.38832409 C11.9565617,2.37772539 11.9989565,2.3459293 12.0413513,2.36712669 Z M6.42404058,5.73751314 L6.42404058,8.51861189 L6.65721197,8.51861189 L6.65721197,9.07610348 L6.42404058,9.07610348 L6.42404058,9.31351435 L5.9682965,9.31351435 L5.9682965,9.07610348 L5.73512511,9.07610348 L5.73512511,8.51861189 L5.9682965,8.51861189 C5.9682965,7.59228555 5.96617676,6.66383947 5.9682965,5.73751314 L6.42404058,5.73751314 Z" id="形状结合" fill="#FFFFFF" fill-rule="nonzero"></path>
                    </g>
                </g>
            </g>
        </g>
    </g>
</svg>