<?xml version="1.0" encoding="UTF-8"?>
<svg width="12px" height="12px" viewBox="0 0 12 12" version="1.1" xmlns="http://www.w3.org/2000/svg" xmlns:xlink="http://www.w3.org/1999/xlink">
    <title>编组</title>
    <g id="原型图" stroke="none" stroke-width="1" fill="none" fill-rule="evenodd">
        <g id="个人中心-企业认证" transform="translate(-462, -357)" fill="#0167FE" fill-rule="nonzero">
            <g id="编组-8" transform="translate(280, 68)">
                <g id="编组-6" transform="translate(182, 286)">
                    <g id="编组" transform="translate(0, 3)">
                        <path d="M9.42856113,8.57163912 L9.42856113,0.857130263 C9.42856113,0.383777227 9.04478389,0 8.57139882,0 L0.857146295,0 C0.383793259,0 0,0.383777242 0,0.857130263 L0,8.57163912 C0,9.04459161 0.383793259,9.42878541 0.857146295,9.42878541 L8.5713988,9.42878541 C9.04476787,9.42878541 9.42856113,9.04459161 9.42856113,8.57163912 Z M7.71428457,8.57163912 L1.71429259,8.57163912 C1.24093955,8.57163912 0.857146295,8.18744532 0.857146295,7.71450885 L0.857146295,1.71427654 C0.857146295,1.24092351 1.24093955,0.857130247 1.71429259,0.857130247 L7.71428457,0.857130247 C8.18763761,0.857130247 8.57139882,1.24090749 8.57139882,1.71427654 L8.57139882,7.71452487 C8.57139882,8.18744532 8.18762158,8.57163912 7.71428457,8.57163912 Z M11.1428377,2.57142284 L10.2857074,2.57142284 L10.2857074,3.42856913 C10.7590444,3.42856913 11.1428377,3.81236239 11.1428377,4.28590767 L11.1428377,10.2859317 C11.1428377,10.7588682 10.7590444,11.143062 10.2857074,11.143062 L4.28569941,11.143062 C3.81234637,11.143062 3.42855311,10.7588682 3.42855311,10.2859317 L2.57140682,10.2859317 L2.57140682,11.143062 C2.57140682,11.6160145 2.95520008,12.0002243 3.42855311,12.0002243 L11.1428377,12.0002243 C11.6162067,12.0002243 12,11.6160145 12,11.143062 L12,3.42856913 C12,2.95520008 11.6161907,2.57142284 11.1428377,2.57142284 Z" id="形状"></path>
                    </g>
                </g>
            </g>
        </g>
    </g>
</svg>