<?xml version="1.0" encoding="UTF-8"?>
<svg width="18px" height="18px" viewBox="0 0 18 18" version="1.1" xmlns="http://www.w3.org/2000/svg" xmlns:xlink="http://www.w3.org/1999/xlink">
    <title>编组@1x</title>
    <g id="原型图" stroke="none" stroke-width="1" fill="none" fill-rule="evenodd">
        <g id="首页备份-2" transform="translate(-1322, -15)">
            <g id="编组" transform="translate(1322, 15)">
                <rect id="矩形" fill="#D8D8D8" opacity="0" x="0" y="0" width="18" height="18"></rect>
                <path d="M16.0538956,14.4134001 C15.816931,13.9073401 15.4695168,13.4635335 15.0819391,13.0639067 C14.5537892,12.5216996 13.9473204,12.0598194 13.3167536,11.6441273 C12.6721295,11.2244188 11.999391,10.8468819 11.3005463,10.5275822 C11.8648433,10.1520535 12.2966009,9.60582999 12.6038516,9.00739395 C13.0235601,8.19006687 13.2444593,7.28839646 13.3689661,6.38270969 C13.4954811,5.42079404 13.5195792,4.44482116 13.4432686,3.47688098 C14.091909,3.21782646 14.7385413,2.95877193 15.3871817,2.6997174 C15.6281626,2.59930867 15.8751681,2.51094898 16.1141409,2.40451572 C13.8067482,1.60325404 11.4973474,0.806008709 9.18995471,0.00675520143 C9.14979122,-0.013326545 9.10962773,0.0167960746 9.07147241,0.0268369479 C6.90063562,0.820065932 4.72779066,1.61128674 2.55494569,2.40451572 C3.3461665,2.77401986 4.14140366,3.13749947 4.93463264,3.5070036 C4.75791328,4.62756505 4.79004407,5.78427365 5.07721304,6.88475335 C5.25794876,7.58359813 5.53909321,8.25432846 5.90859735,8.87485442 C6.27609331,9.48533951 6.71588355,10.0576693 7.25407436,10.5275822 C6.29015053,10.8408574 5.35233297,11.2605659 4.52094867,11.8469529 C3.95062707,12.2485878 3.43452619,12.7285416 3.02084221,13.2908305 C2.55896204,13.9153728 2.22761323,14.642332 2.08302465,15.4074465 C2.00872219,15.7990406 1.9765914,16.2006755 2.01876306,16.5962859 C4.28197589,17.5602098 6.74801435,18.0301226 9.20602011,17.9959837 C8.44492192,17.3473432 7.68181556,16.6987028 6.91870919,16.0500624 C7.52718611,14.5780704 8.13365485,13.1060784 8.74213177,11.6340864 C8.75016447,11.6059719 8.77827891,11.5758493 8.75819716,11.549743 C8.58549414,11.2645822 8.40877478,10.9834378 8.24008811,10.6962688 C8.5332816,10.8508983 8.8586059,10.9492988 9.19196289,10.951307 C9.49118091,10.9573315 9.78839076,10.8649555 10.0353962,10.6962688 C9.85265234,10.9713888 9.66790028,11.2465087 9.48314821,11.5216286 C9.8406033,12.3369475 10.2000666,13.1522664 10.5575216,13.9695935 C10.8527233,14.6503647 11.1579659,15.3271196 11.4491512,16.0078908 C10.700102,16.6685802 9.95707743,17.3352942 9.21204463,18 C11.02141,17.9759019 12.826759,17.6967656 14.5578055,17.172632 C15.0899718,17.0079617 15.6161136,16.827226 16.1241818,16.5982941 C16.2547131,16.2930516 16.3310237,15.9637109 16.3351479,15.6323621 C16.3390564,15.2106454 16.230615,14.7929451 16.0538956,14.4134001 Z" id="路径" fill="#0167FE" fill-rule="nonzero"></path>
                <path d="M3.21563515,6.36262795 L3.43653436,6.36262795 L3.43653436,6.58754351 L3.86829191,6.58754351 L3.86829191,6.36262795 L4.08919112,6.36262795 L4.08919112,5.83447801 L3.86829191,5.83447801 L3.86829191,3.19975288 L3.43653436,3.19975288 C3.43452619,4.0773252 3.43653436,4.9569057 3.43653436,5.83447801 L3.21563515,5.83447801 L3.21563515,6.36262795 L3.21563515,6.36262795 Z" id="路径" fill="#6C88FE" fill-rule="nonzero"></path>
            </g>
        </g>
    </g>
</svg>