<?xml version="1.0" encoding="UTF-8"?>
<svg width="13px" height="13px" viewBox="0 0 13 13" version="1.1" xmlns="http://www.w3.org/2000/svg" xmlns:xlink="http://www.w3.org/1999/xlink">
    <title>时间</title>
    <g id="原型图" stroke="none" stroke-width="1" fill="none" fill-rule="evenodd">
        <g id="首页备份-2" transform="translate(-537, -2539)" fill="#98A3B7" fill-rule="nonzero">
            <g id="供需大厅" transform="translate(0, 2063)">
                <g id="编组-18" transform="translate(360, 142)">
                    <g id="时间" transform="translate(177, 332)">
                        <g transform="translate(0, 2)">
                            <path d="M11.0981318,1.90185238 C8.56280209,-0.633950792 4.43720182,-0.633950792 1.90184054,1.90185238 C-0.633946848,4.43718208 -0.633946848,8.56281392 1.90184054,11.0981594 C4.43720182,13.6339468 8.56281787,13.6339468 11.0981318,11.0981594 C13.6339507,8.56281392 13.6339507,4.43718208 11.0981318,1.90185238 Z M10.4381797,10.43816 C8.26667904,12.6101499 4.7328514,12.6096606 2.56184,10.43816 C0.389865897,8.26665932 0.389865897,4.73332092 2.56184,2.56158354 C4.73286717,0.390303848 8.26669482,0.38984616 10.4381797,2.56158354 C12.6096645,4.73286323 12.6096645,8.26713279 10.4381797,10.43816 Z" id="形状"></path>
                            <path d="M9.73032832,6.64644973 L6.55250172,6.64644973 L6.55294363,3.13083484 C6.55294363,2.89757264 6.36227783,2.70734874 6.12879467,2.70734874 C5.89531152,2.70734874 5.70554529,2.89757265 5.70554529,3.13083484 L5.70554529,6.75698886 C5.70554529,6.76986721 5.68992083,7.07295024 5.89207614,7.28845737 C6.02057552,7.42432708 6.20112489,7.49340614 6.43416613,7.49340614 L9.7303441,7.49389539 C9.96385882,7.49389539 10.1540512,7.30412917 10.1540512,7.07015677 C10.1540512,6.83757323 9.96428494,6.6478228 9.73032832,6.64644973 Z" id="路径"></path>
                        </g>
                    </g>
                </g>
            </g>
        </g>
    </g>
</svg>